Coordinates
version=1
nRows=16
nColumns=36
inDegrees=yes

Units are S.I. units (second, meters, Newtons, ...)
If the header above contains a line with 'inDegrees', this indicates whether rotational values are in degrees (yes) or radians (no).

endheader
time	pelvis_tilt	pelvis_list	pelvis_rotation	pelvis_tx	pelvis_ty	pelvis_tz	hip_flexion_r	hip_adduction_r	hip_rotation_r	knee_angle_r	knee_angle_r_beta	ankle_angle_r	subtalar_angle_r	mtp_angle_r	hip_flexion_l	hip_adduction_l	hip_rotation_l	knee_angle_l	knee_angle_l_beta	ankle_angle_l	subtalar_angle_l	mtp_angle_l	lumbar_extension	lumbar_bending	lumbar_rotation	arm_flex_r	arm_add_r	arm_rot_r	elbow_flex_r	pro_sup_r	arm_flex_l	arm_add_l	arm_rot_l	elbow_flex_l	pro_sup_l
      1.63000000	    -23.91210751	     -2.31351125	     -0.08047155	     -0.26145950	      0.62876176	     -0.61615354	     87.05172911	     -3.48412417	      2.71710775	     98.59168932	      1.72074959	     23.73509843	    -12.36249650	     -7.31766472	     88.43430176	     -1.63805237	      8.80565694	     97.59534056	      1.70336003	     27.27505403	     -9.23523818	     -7.31766472	    -36.93287264	      1.29911776	     -4.03360089	     -8.09465302	    -15.86969589	     -7.93865497	     42.77275481	    104.60798114	     -6.94088039	    -20.68428870	     -7.91050216	     40.40786801	     98.85358429
      1.64000000	    -24.64868308	     -2.40587922	      0.24980839	     -0.26028992	      0.62607613	     -0.61702346	     88.50353689	     -3.87396591	      2.69710484	     99.45464138	      1.73581095	     21.26972424	    -13.59974713	     -7.33807447	     89.57092265	     -1.12120641	      8.85172349	     98.00186328	      1.71045519	     26.29545739	    -10.21332051	     -7.33807447	    -37.93149503	      1.60257835	     -4.38532588	     -4.22814139	    -16.67763484	     -2.64196882	     43.63666779	    102.46893024	     -3.08760953	    -21.79080437	     -4.90664236	     41.83223076	     96.50820777
      1.65000000	    -25.43998835	     -2.50345517	      0.42798271	     -0.25920701	      0.62353087	     -0.61750013	     89.93860529	     -4.28750738	      2.59874472	    100.20372483	      1.74888492	     20.40379373	    -13.04254458	     -7.33933285	     90.67526868	     -0.97593600	      8.75716176	     98.37818934	      1.71702332	     26.21227174	    -10.19611615	     -7.33933285	    -38.80475936	      1.79617328	     -4.05407985	     -0.79820459	    -16.59146509	     -1.62643480	     44.93974032	    102.53570600	      1.10480854	    -22.14695636	     -4.34255153	     43.74991289	     96.63995481
      1.66000000	    -26.28347128	     -2.60720866	      0.19313370	     -0.25812732	      0.62112552	     -0.61685168	     91.30320384	     -4.19166126	      2.52014749	    100.70932098	      1.75770924	     19.37896036	    -12.44505153	     -7.34103366	     91.76628810	     -1.48557252	      8.56714216	     98.74194393	      1.72337203	     26.16760161	    -10.20153460	     -7.34103366	    -39.44321124	      1.68377056	     -3.41928469	      2.71872529	    -16.80940870	      0.18650556	     46.15170543	    102.60486226	      5.35471162	    -22.73307523	     -3.09642916	     45.58409693	     96.78974835
      1.67000000	    -26.92221473	     -2.78924431	      0.07299373	     -0.25696533	      0.61953279	     -0.61657308	     92.18434525	     -4.32981943	      2.26422213	    101.00290255	      1.76283320	     18.63638708	    -12.06975176	     -7.34358243	     92.54834436	     -1.91424677	      8.43587200	     98.99451168	      1.72778017	     26.22140441	    -10.02854899	     -7.34358243	    -40.14709778	      1.74497974	     -2.81584653	      6.45115208	    -17.40738950	      2.72154603	     47.07437354	    102.51609216	      9.81793246	    -23.30646183	     -1.11171919	     47.21796871	     96.83597437
      1.68000000	    -27.60838797	     -2.97366592	      0.08035404	     -0.25606740	      0.61842702	     -0.61672606	     92.85368367	     -4.64350641	      1.98015314	    100.98687550	      1.76255348	     18.63965689	    -11.79113381	     -7.34921737	     93.32668608	     -2.18748332	      8.32916676	     99.05247469	      1.72879182	     26.45844124	     -9.61979985	     -7.34921737	    -40.63548902	      1.94379522	     -2.55278248	     10.55624580	    -18.03782489	      5.59085252	     47.67602256	    101.81542743	     14.24318083	    -23.92794110	      1.18569711	     48.40345029	     96.32518006
      1.69000000	    -28.10640352	     -3.13181211	      0.02301309	     -0.25513874	      0.61801158	     -0.61696295	     93.18055893	     -4.89790881	      1.76700982	    100.85809865	      1.76030590	     18.92373917	    -10.94872447	     -7.35538839	     93.85406115	     -2.52980489	      8.18966777	     99.06106312	      1.72894171	     26.52877556	     -9.24477729	     -7.35538839	    -41.31141208	      2.07616681	     -2.08744437	     14.55656439	    -18.67465116	      7.78767919	     48.31090790	    101.10833970	     18.45564617	    -24.19928802	      2.45097907	     50.44079779	     95.72918675
      1.70000000	    -28.56451699	     -3.19583351	     -0.07995580	     -0.25415348	      0.61802189	     -0.61708009	     93.41420338	     -5.12447645	      1.55093469	    100.63905881	      1.75648293	     18.95028586	    -10.60515919	     -7.35655807	     94.27344797	     -2.85441068	      8.03435738	     99.00644270	      1.72798841	     26.40198904	     -9.07217327	     -7.35655807	    -41.92997045	      2.07057776	     -1.56378834	     18.33073024	    -18.88774125	      8.41720460	     49.04973314	    101.07251980	     22.54407027	    -24.07396463	      2.85354707	     52.58937336	     95.82585558
      1.71000000	    -28.96265531	     -3.33905046	     -0.15318776	     -0.25315529	      0.61843192	     -0.61734020	     93.51096396	     -5.51975688	      1.02110886	    100.36005304	      1.75161336	     19.62964496	     -9.77260700	     -7.36072795	     94.63852857	     -3.04250849	      8.07562619	     98.97786224	      1.72748958	     26.29647000	     -8.82980507	     -7.36072795	    -42.44205376	      2.15313313	     -1.41258373	     22.46193199	    -19.41359235	     10.98362697	     49.70432300	    100.85344861	     26.28238019	    -24.59446492	      4.68842978	     54.68750062	     95.65210210
      1.72000000	    -29.28940156	     -3.30119220	      0.04308031	     -0.25223891	      0.61941433	     -0.61840620	     93.58728507	     -6.11684834	      0.86222781	    100.14361675	      1.74783584	     19.64890610	     -9.51145303	     -7.36171563	     94.81283092	     -2.77789543	      7.92590857	     98.75479403	      1.72359631	     26.06614745	     -8.72258602	     -7.36171563	    -42.94377996	      2.30432791	     -1.36416742	     26.13210687	    -19.36783938	     11.25727827	     50.37937391	    100.82749776	     30.05232173	    -24.31551630	      5.18288262	     56.61854421	     95.75481136
      1.73000000	    -29.51835443	     -3.26149947	      0.41420678	     -0.25131556	      0.62059565	     -0.61989670	     93.62578807	     -6.95278602	      0.68196607	    100.02572091	      1.74577817	     19.67137848	     -8.96031550	     -7.36331687	     94.89158647	     -2.16860525	      7.87368603	     98.57589323	      1.72047390	     25.64423829	     -8.90146687	     -7.36331687	    -43.41195340	      2.51614883	     -1.62514445	     29.70699450	    -19.41313696	     12.00680662	     51.14582708	    100.84090987	     33.60399077	    -24.47513955	      6.51028122	     58.60733484	     95.85314849
      1.74000000	    -30.01356127	     -3.14986327	      0.70463254	     -0.25046044	      0.62149609	     -0.62092889	     94.02549923	     -7.56046616	      0.76732819	     99.90051354	      1.74359289	     19.96603105	     -7.88538521	     -7.36727849	     95.19372267	     -1.58044256	      7.73001919	     98.25757572	      1.71491821	     24.75628187	     -9.98533979	     -7.36727849	    -43.38068887	      2.61039455	     -1.96560862	     33.00982115	    -19.39998747	     13.24485293	     51.76807356	    100.78468971	     37.10692130	    -24.80831078	      8.43073955	     59.96552252	     95.68231266
      1.75000000	    -30.28960092	     -3.04624535	      0.92868983	     -0.24935882	      0.62285455	     -0.62162909	     94.24842323	     -8.11662904	      0.72513059	     99.86432448	      1.74296127	     19.85572198	     -7.33742055	     -7.37355666	     95.22722577	     -1.00432808	      7.69245720	     97.99498423	      1.71033513	     23.86308935	    -10.97005186	     -7.37355666	    -43.46891454	      2.64530655	     -1.92063102	     35.90647370	    -19.40627431	     13.24149177	     52.50904633	    100.44391549	     40.68697403	    -24.31886794	      9.57373688	     60.84549039	     95.24956752
      1.76000000	    -30.64241034	     -3.03428607	      0.90042795	     -0.24822114	      0.62464111	     -0.62129900	     94.39532832	     -8.11860997	      0.67919907	     99.58546430	      1.73809424	     19.62488175	     -7.21546402	     -7.37416966	     95.23174637	     -0.84046251	      7.79421972	     97.64816771	      1.70428204	     23.78903920	    -11.05467856	     -7.37416966	    -43.42236309	      2.57388837	     -1.92260453	     38.74027843	    -19.00416006	     13.12517120	     53.22164522	    100.42998379	     43.81051609	    -23.76010640	      9.78656437	     61.81717426	     95.30491443
      1.77000000	    -30.65911348	     -2.94937825	      0.69516898	     -0.24692964	      0.62740382	     -0.62035531	     94.16618342	     -7.77701955	      0.76686108	     99.23392878	      1.73195879	     18.72938940	     -7.48951555	     -7.38080812	     94.75867075	     -0.87674592	      7.81066656	     97.24586981	      1.69726061	     23.26395252	    -12.10710816	     -7.38080812	    -43.59203773	      2.20579445	     -1.21473387	     41.16516344	    -19.14411513	     12.83045946	     54.15291128	     99.86068893	     47.99205249	    -23.00654530	     12.39041469	     61.27284926	     94.72810487
      1.78000000	    -31.00185319	     -2.99667880	      0.46154563	     -0.24572898	      0.63006222	     -0.61934045	     94.13073599	     -7.33987645	      0.79569597	     98.72430212	      1.72306412	     18.46575843	     -7.30279133	     -7.38133954	     94.54449721	     -0.88054997	      8.11058794	     96.67252340	      1.68725383	     23.34052211	    -12.22714601	     -7.38133954	    -43.30574671	      2.08082581	     -1.02070370	     43.81551915	    -18.58143850	     12.83635709	     54.68743903	     99.87532484	     50.76108184	    -22.28405860	     12.54166602	     61.84243622	     94.73604900
